<svg xmlns="http://www.w3.org/2000/svg" width="60" height="80" viewBox="0 0 60 80">
  <defs>
    <clipPath id="c">
      <rect width="60" height="80"/>
    </clipPath>
  </defs>
  <g clip-path="url(#c)" opacity="0.12">
    <g stroke="#B8860B" stroke-width="0.8" fill="none">
      <path d="M0,0 Q7.5,28 15,40"/>
      <path d="M30,0 Q22.5,28 15,40"/>
      <path d="M30,0 Q37.5,28 45,40"/>
      <path d="M60,0 Q52.5,28 45,40"/>
      <path d="M15,40 Q7.5,68 0,80"/>
      <path d="M15,40 Q22.5,68 30,80"/>
      <path d="M45,40 Q37.5,68 30,80"/>
      <path d="M45,40 Q52.5,68 60,80"/>
    </g>
    <g fill="#B8860B">
      <circle cx="0" cy="0" r="2"/>
      <circle cx="30" cy="0" r="2"/>
      <circle cx="60" cy="0" r="2"/>
      <circle cx="15" cy="40" r="2"/>
      <circle cx="45" cy="40" r="2"/>
      <circle cx="0" cy="80" r="2"/>
      <circle cx="30" cy="80" r="2"/>
      <circle cx="60" cy="80" r="2"/>
    </g>
  </g>
</svg>
